# xmcd
#
# Track frame offsets: 
#        182
#        19145
#        38777
#        150530
#        168332
#        187152
#        206362
#        229917
#        278790
#
# Disc length: 4489 seconds
#
# Revision: 5
# Processed by: cddbd v1.5.2PL0 Copyright (c) Steve Scherf et al.
# Submitted via: ExactAudioCopy v1.0b3
#
DISCID=73118709
DTITLE=Fleetwood Mac - Live at the Boston Tea Party - Part Two
DYEAR=1998
DGENRE=Blues
TTITLE0=World In Harmony
TTITLE1=Oh Well
TTITLE2=Rattlesnake Shake
TTITLE3=Stranger Blues
TTITLE4=Red Hot Mama
TTITLE5=Teenage Darling
TTITLE6=Keep A-Knocking
TTITLE7=Jenny Jenny
TTITLE8=Encore
EXTD=
EXTT0=
EXTT1=
EXTT2=
EXTT3=
EXTT4=
EXTT5=
EXTT6=
EXTT7=
EXTT8=
PLAYORDER=
